<?xml version="1.0" standalone="no"?>
<!DOCTYPE svg PUBLIC "-//W3C//DTD SVG 20010904//EN"
 "http://www.w3.org/TR/2001/REC-SVG-20010904/DTD/svg10.dtd">
<svg version="1.0" xmlns="http://www.w3.org/2000/svg"
 width="700.000000pt" height="700.000000pt" viewBox="0 0 700.000000 700.000000"
 preserveAspectRatio="xMidYMid meet">
<metadata>
Created by potrace 1.11, written by Peter Selinger 2001-2013
</metadata>
<g transform="translate(0.000000,700.000000) scale(0.100000,-0.100000)"
fill="#000000" stroke="none">
<path d="M4320 6290 c-290 -288 -268 -273 -345 -256 -105 23 -167 35 -205 41
-25 3 -56 8 -70 10 -196 31 -601 36 -760 10 -14 -2 -50 -7 -80 -10 -30 -4 -77
-11 -105 -17 -27 -5 -63 -12 -80 -14 -42 -7 -278 -69 -351 -93 -382 -123 -790
-359 -1087 -631 -564 -515 -901 -1162 -998 -1915 -21 -160 -17 -646 6 -775 3
-22 13 -88 20 -145 1 -11 6 -28 10 -37 4 -10 5 -25 1 -33 -3 -8 -1 -15 4 -15
6 0 10 -12 10 -26 0 -14 4 -33 10 -43 5 -10 11 -37 12 -59 2 -22 6 -38 11 -35
4 2 7 -3 7 -11 0 -18 78 -257 109 -334 12 -30 18 -58 15 -64 -4 -7 -2 -8 4 -4
11 6 14 0 11 -20 0 -4 5 -10 11 -14 7 -4 13 -19 13 -33 1 -14 5 -23 10 -20 6
4 11 -12 8 -29 0 -5 3 -8 8 -8 9 0 27 -40 22 -49 -2 -2 2 -7 7 -10 12 -8 97
-164 94 -174 -1 -4 2 -7 7 -7 10 0 7 -32 -5 -52 -4 -6 -3 -8 2 -5 6 3 10 -14
11 -40 3 -74 13 -138 32 -200 5 -18 7 -33 4 -33 -3 0 0 -7 7 -15 6 -8 9 -19 6
-24 -4 -5 -1 -13 5 -16 5 -4 8 -14 5 -22 -3 -8 -1 -11 4 -8 6 3 10 1 10 -5 0
-34 114 -220 170 -278 25 -27 29 -36 19 -48 -7 -9 -8 -14 -1 -14 6 0 12 6 15
13 2 7 20 -5 45 -31 22 -23 44 -42 49 -42 4 0 22 -13 39 -30 18 -16 35 -26 38
-23 3 4 6 1 6 -5 0 -7 6 -12 13 -12 7 0 22 -7 33 -16 10 -8 13 -12 5 -8 -9 4
-12 3 -7 -4 4 -6 13 -9 20 -6 7 3 20 -2 29 -10 8 -8 17 -13 20 -9 3 3 19 -4
35 -16 16 -11 31 -18 34 -16 2 2 33 -5 68 -16 36 -12 83 -23 105 -26 22 -3 45
-8 50 -12 6 -3 28 -6 50 -6 25 1 45 -5 53 -14 10 -13 11 -14 7 -1 -4 12 7 15
67 16 62 1 69 -1 53 -12 -10 -8 -14 -14 -8 -14 7 0 15 5 18 10 4 6 11 7 17 4
7 -4 8 -2 4 4 -9 15 -1 15 26 1 15 -8 19 -8 14 0 -9 14 0 14 26 0 13 -7 18 -7
14 -1 -7 12 33 10 53 -3 10 -6 12 -4 7 4 -10 15 25 11 36 -4 5 -7 8 -7 8 0 0
13 269 13 289 1 10 -6 12 -5 7 2 -9 15 -1 15 26 1 15 -8 19 -8 14 0 -9 14 0
14 26 0 13 -7 18 -7 14 -1 -7 12 33 10 53 -3 10 -5 12 -4 7 4 -5 8 2 11 23 9
17 -1 31 -7 31 -13 0 -7 3 -7 8 0 4 6 16 11 27 11 11 0 23 -5 27 -11 5 -6 8
-6 8 0 0 6 30 10 70 11 47 0 67 -3 63 -10 -4 -6 1 -5 11 3 15 13 19 13 27 0 6
-10 9 -11 9 -1 0 10 5 10 21 1 15 -8 19 -8 15 0 -9 14 0 14 26 0 15 -8 19 -8
14 0 -9 14 0 14 26 0 13 -7 18 -7 14 -1 -7 12 33 10 53 -3 10 -6 12 -4 7 4
-10 15 25 11 36 -4 5 -7 8 -7 8 0 0 13 269 13 289 1 10 -6 12 -5 7 2 -9 15 -1
15 26 1 15 -8 19 -8 14 0 -9 14 0 14 26 0 13 -7 18 -7 14 -1 -7 12 33 10 53
-3 10 -5 12 -4 7 4 -5 8 2 11 23 9 17 -1 31 -7 31 -13 0 -7 3 -7 8 0 4 6 16
11 27 11 11 0 23 -5 27 -11 5 -6 8 -6 8 0 0 6 30 10 70 11 47 0 67 -3 63 -10
-4 -6 1 -5 11 3 15 13 19 13 27 0 6 -10 9 -11 9 -1 0 10 5 10 21 1 15 -8 19
-8 15 0 -9 14 0 14 26 0 15 -8 19 -8 14 0 -9 14 0 14 26 0 13 -7 18 -7 14 -1
-7 12 33 10 53 -3 10 -5 12 -4 7 4 -5 8 2 11 23 9 17 -1 31 -7 31 -13 0 -7 3
-7 8 0 9 14 45 14 54 0 5 -6 8 -6 8 0 0 6 30 10 70 11 47 0 67 -3 63 -10 -4
-6 1 -5 11 3 15 13 19 13 27 0 5 -8 9 -9 9 -3 0 14 70 14 70 0 0 -7 3 -8 8 -1
4 6 16 11 27 11 11 0 23 -5 27 -11 5 -6 8 -6 8 0 0 6 30 10 70 11 47 0 67 -3
63 -10 -4 -6 1 -5 11 3 15 13 19 13 27 0 5 -8 9 -9 9 -3 0 14 70 14 70 0 0 -7
3 -8 8 -1 4 6 16 11 27 11 11 0 23 -5 27 -11 5 -6 8 -6 8 2 0 12 17 12 36 0 6
-3 14 -3 18 0 13 13 37 11 43 -4 5 -11 7 -12 14 -2 5 9 34 13 89 14 69 1 80
-1 75 -15 -4 -13 -4 -13 7 0 14 17 36 19 57 6 9 -6 12 -5 7 2 -4 7 9 10 37 9
23 0 48 3 55 7 7 4 12 2 12 -6 0 -10 2 -11 8 0 5 7 27 14 50 16 23 2 45 6 49
9 11 12 24 8 18 -5 -4 -7 -1 -6 7 2 7 8 21 16 30 18 9 1 42 14 73 27 31 14 61
22 67 19 6 -4 8 -3 5 2 -3 5 20 23 51 39 31 16 61 35 65 42 5 8 12 11 18 8 5
-4 9 -1 9 5 0 6 5 8 10 5 6 -3 10 2 10 11 0 10 3 15 6 11 3 -3 16 5 29 19 15
16 29 22 41 18 12 -4 15 -3 7 3 -8 6 -3 18 18 41 16 18 29 29 29 25 0 -5 9 7
20 25 11 17 25 32 30 32 6 0 8 5 5 10 -3 6 -2 10 3 10 5 0 14 12 20 26 7 15
17 22 24 18 7 -4 8 -3 4 5 -4 6 2 24 13 40 12 16 21 34 21 40 0 6 5 11 11 11
5 0 7 5 4 10 -3 6 -2 10 3 10 5 0 12 14 16 31 4 20 10 28 17 23 7 -4 9 -3 6 3
-8 12 23 124 33 118 3 -2 4 10 2 27 -3 17 -1 28 4 25 5 -3 11 25 13 62 5 97 6
105 13 116 4 6 3 16 -1 23 -11 18 -1 69 15 83 8 6 14 18 14 25 0 8 5 14 11 14
5 0 8 3 5 8 -6 11 39 83 48 75 4 -4 4 0 0 10 -4 12 -1 17 12 17 13 0 15 3 7 8
-10 6 -9 14 4 32 10 14 18 31 20 39 1 8 7 17 13 21 7 4 11 10 11 14 -3 20 0
26 11 20 6 -4 8 -3 5 4 -9 13 33 123 44 116 5 -3 6 2 3 11 -4 8 -2 21 4 28 5
6 12 25 16 40 4 15 10 26 14 23 4 -2 8 6 8 17 1 12 4 31 8 42 3 11 16 54 28
95 13 41 25 77 28 80 3 3 6 14 7 25 3 32 13 78 21 89 3 6 5 19 4 29 -2 9 0 17
5 17 4 0 9 21 11 47 1 25 6 51 10 57 5 6 7 23 6 39 -2 15 0 26 4 23 4 -2 8 15
9 37 1 23 4 60 6 82 38 334 21 694 -48 1015 -17 80 -23 116 -19 122 3 5 0 8
-6 8 -7 0 48 61 121 135 77 77 140 133 147 130 7 -3 10 0 7 6 -8 13 24 51 37
43 4 -3 7 -1 6 4 -2 5 43 56 100 113 57 57 103 109 103 114 0 6 -145 155 -323
333 l-322 322 -1 438 0 437 -438 1 -438 2 -326 326 c-180 179 -328 326 -329
326 -2 0 -125 -122 -274 -270z"/>
<path d="M6695 4260 c3 -5 8 -10 11 -10 2 0 4 5 4 10 0 6 -5 10 -11 10 -5 0
-7 -4 -4 -10z"/>
<path d="M6629 4203 c-13 -16 -12 -17 4 -4 16 13 21 21 13 21 -2 0 -10 -8 -17
-17z"/>
<path d="M6615 4140 c3 -5 8 -10 11 -10 2 0 4 5 4 10 0 6 -5 10 -11 10 -5 0
-7 -4 -4 -10z"/>
<path d="M6535 4060 c3 -5 8 -10 11 -10 2 0 4 5 4 10 0 6 -5 10 -11 10 -5 0
-7 -4 -4 -10z"/>
<path d="M6450 3980 c0 -5 5 -10 11 -10 5 0 7 5 4 10 -3 6 -8 10 -11 10 -2 0
-4 -4 -4 -10z"/>
<path d="M6375 3940 c3 -5 8 -10 11 -10 2 0 4 5 4 10 0 6 -5 10 -11 10 -5 0
-7 -4 -4 -10z"/>
<path d="M6315 3880 c3 -5 8 -10 11 -10 2 0 4 5 4 10 0 6 -5 10 -11 10 -5 0
-7 -4 -4 -10z"/>
<path d="M546 1582 c-3 -5 1 -9 9 -9 8 0 12 4 9 9 -3 4 -7 8 -9 8 -2 0 -6 -4
-9 -8z"/>
<path d="M575 1540 c3 -5 8 -10 11 -10 2 0 4 5 4 10 0 6 -5 10 -11 10 -5 0 -7
-4 -4 -10z"/>
<path d="M596 1502 c-3 -5 1 -9 9 -9 8 0 12 4 9 9 -3 4 -7 8 -9 8 -2 0 -6 -4
-9 -8z"/>
<path d="M5930 1459 c0 -5 5 -7 10 -4 6 3 10 8 10 11 0 2 -4 4 -10 4 -5 0 -10
-5 -10 -11z"/>
<path d="M5796 918 c3 -5 10 -6 15 -3 13 9 11 12 -6 12 -8 0 -12 -4 -9 -9z"/>
<path d="M5770 880 c0 -5 5 -10 11 -10 5 0 7 5 4 10 -3 6 -8 10 -11 10 -2 0
-4 -4 -4 -10z"/>
<path d="M770 860 c0 -5 5 -10 11 -10 5 0 7 5 4 10 -3 6 -8 10 -11 10 -2 0 -4
-4 -4 -10z"/>
<path d="M5735 820 c-3 -5 -1 -10 4 -10 6 0 11 5 11 10 0 6 -2 10 -4 10 -3 0
-8 -4 -11 -10z"/>
<path d="M850 740 c0 -5 5 -10 11 -10 5 0 7 5 4 10 -3 6 -8 10 -11 10 -2 0 -4
-4 -4 -10z"/>
<path d="M5650 699 c0 -5 5 -7 10 -4 6 3 10 8 10 11 0 2 -4 4 -10 4 -5 0 -10
-5 -10 -11z"/>
<path d="M995 600 c3 -5 8 -10 11 -10 2 0 4 5 4 10 0 6 -5 10 -11 10 -5 0 -7
-4 -4 -10z"/>
<path d="M5495 540 c3 -5 8 -10 11 -10 2 0 4 5 4 10 0 6 -5 10 -11 10 -5 0 -7
-4 -4 -10z"/>
<path d="M1185 479 c-3 -4 2 -6 10 -5 21 3 28 13 10 13 -9 0 -18 -4 -20 -8z"/>
<path d="M1236 442 c-3 -5 1 -9 9 -9 8 0 12 4 9 9 -3 4 -7 8 -9 8 -2 0 -6 -4
-9 -8z"/>
<path d="M5326 442 c-3 -5 1 -9 9 -9 8 0 12 4 9 9 -3 4 -7 8 -9 8 -2 0 -6 -4
-9 -8z"/>
<path d="M4993 415 c0 -8 4 -12 9 -9 5 3 6 10 3 15 -9 13 -12 11 -12 -6z"/>
<path d="M5130 419 c0 -5 5 -7 10 -4 6 3 10 8 10 11 0 2 -4 4 -10 4 -5 0 -10
-5 -10 -11z"/>
<path d="M5175 420 c3 -5 8 -10 11 -10 2 0 4 5 4 10 0 6 -5 10 -11 10 -5 0 -7
-4 -4 -10z"/>
<path d="M1995 409 c-4 -6 -5 -12 -2 -15 2 -3 7 2 10 11 7 17 1 20 -8 4z"/>
<path d="M2955 409 c-4 -6 -5 -12 -2 -15 2 -3 7 2 10 11 7 17 1 20 -8 4z"/>
<path d="M1793 395 c0 -8 4 -12 9 -9 5 3 6 10 3 15 -9 13 -12 11 -12 -6z"/>
<path d="M1870 400 c0 -5 5 -10 11 -10 5 0 7 5 4 10 -3 6 -8 10 -11 10 -2 0
-4 -4 -4 -10z"/>
<path d="M2273 395 c0 -8 4 -12 9 -9 5 3 6 10 3 15 -9 13 -12 11 -12 -6z"/>
<path d="M2350 400 c0 -5 5 -10 11 -10 5 0 7 5 4 10 -3 6 -8 10 -11 10 -2 0
-4 -4 -4 -10z"/>
<path d="M2753 395 c0 -8 4 -12 9 -9 5 3 6 10 3 15 -9 13 -12 11 -12 -6z"/>
<path d="M2830 400 c0 -5 5 -10 11 -10 5 0 7 5 4 10 -3 6 -8 10 -11 10 -2 0
-4 -4 -4 -10z"/>
<path d="M3233 395 c0 -8 4 -12 9 -9 5 3 6 10 3 15 -9 13 -12 11 -12 -6z"/>
<path d="M3310 400 c0 -5 5 -10 11 -10 5 0 7 5 4 10 -3 6 -8 10 -11 10 -2 0
-4 -4 -4 -10z"/>
<path d="M3713 395 c0 -8 4 -12 9 -9 5 3 6 10 3 15 -9 13 -12 11 -12 -6z"/>
<path d="M3790 400 c0 -5 5 -10 11 -10 5 0 7 5 4 10 -3 6 -8 10 -11 10 -2 0
-4 -4 -4 -10z"/>
<path d="M4630 396 c7 -7 13 -7 20 0 6 6 3 10 -10 10 -13 0 -16 -4 -10 -10z"/>
<path d="M5173 385 c0 -8 4 -12 9 -9 5 3 6 10 3 15 -9 13 -12 11 -12 -6z"/>
<path d="M1695 380 c3 -5 8 -10 11 -10 2 0 4 5 4 10 0 6 -5 10 -11 10 -5 0 -7
-4 -4 -10z"/>
<path d="M5090 379 c0 -5 5 -7 10 -4 6 3 10 8 10 11 0 2 -4 4 -10 4 -5 0 -10
-5 -10 -11z"/>
<path d="M1989 363 c-13 -16 -12 -17 4 -4 9 7 17 15 17 17 0 8 -8 3 -21 -13z"/>
<path d="M2949 363 c-13 -16 -12 -17 4 -4 16 13 21 21 13 21 -2 0 -10 -8 -17
-17z"/>
<path d="M1646 362 c-3 -5 1 -9 9 -9 8 0 12 4 9 9 -3 4 -7 8 -9 8 -2 0 -6 -4
-9 -8z"/>
<path d="M2707 359 c7 -7 15 -10 18 -7 3 3 -2 9 -12 12 -14 6 -15 5 -6 -5z"/>
<path d="M3667 359 c7 -7 15 -10 18 -7 3 3 -2 9 -12 12 -14 6 -15 5 -6 -5z"/>
</g>
</svg>
